<svg width="64" height="64" viewBox="0 0 64 64" fill="none" xmlns="http://www.w3.org/2000/svg">
<g clip-path="url(#clip0_8_215)">
<path d="M63.9813 0H0.01875C0.00839466 0 0 0.00839466 0 0.01875V63.9813C0 63.9916 0.00839466 64 0.01875 64H63.9813C63.9916 64 64 63.9916 64 63.9813V0.01875C64 0.00839466 63.9916 0 63.9813 0Z" fill="#171515"/>
<path d="M14.8749 31.875C16.9999 35.625 20.9999 37.875 27.6249 38.5C26.6249 39.25 25.4999 40.625 25.3749 42.25C24.1249 43 21.7499 43.25 19.8749 42.625C17.2499 41.75 16.2499 36.625 12.2499 37.375C11.3749 37.5 11.4999 38.125 12.2499 38.625C13.4999 39.375 14.8749 40.625 15.4999 42.375C16.9999 46.25 20.1249 47.25 25.1249 46.5V52.125C25.1249 53.875 22.6249 54.375 22.6249 55.25C22.6249 55.625 23.4999 55.625 24.1249 55.625C25.3749 55.625 28.1249 54.5 28.1249 52.75C28.1249 51.25 28.1249 46.25 28.2499 45.375C28.2499 43.5 29.2499 42.875 29.2499 42.875C29.2499 42.875 29.3749 53.125 28.9999 54.375C28.4999 56 27.7499 55.75 27.7499 56.5C27.7499 57.625 30.9999 56.75 32.1249 54.375C32.9999 52.5 32.6249 42.5 32.4999 42.625H33.3749C33.3749 42.625 33.3749 47.25 33.4999 49.25C33.4999 51.375 33.3749 54.125 34.6249 55.5C35.4999 56.375 38.2499 57.875 38.2499 56.5C38.2499 55.75 36.7499 55 36.7499 52.875V43C37.9999 43 37.7499 46.25 37.7499 46.25L37.8749 52.25C37.8749 52.25 37.6249 54.5 40.2499 55.375C41.2499 55.75 43.2499 55.75 43.3749 55.25C43.4999 54.75 40.8749 53.875 40.8749 52.125V46C40.8749 41.5 40.2499 39.875 38.1249 38.5C44.7499 37.875 48.8749 36.25 50.8749 31.875C52.1249 29.375 52.3749 26.375 52.3749 24.125C52.3749 17.875 49.3749 15.75 48.7499 14.625C49.6249 9.87503 48.6249 7.75003 48.1249 7.12503C46.3749 6.50003 42.1249 8.62503 39.8749 10.125C36.1249 9.00003 28.1249 9.12503 25.1249 10.375C19.6249 6.50003 16.7499 7.12503 16.7499 7.12503C16.7499 7.12503 14.8749 10.5 16.2499 15.375C14.3749 17.625 13.1249 19.25 12.9999 23.5C12.9999 26.875 13.3749 29 14.8749 31.875Z" fill="white"/>
</g>
<defs>
<clipPath id="clip0_8_215">
<rect width="64" height="64" rx="4" fill="white"/>
</clipPath>
</defs>
</svg>
