<svg width="64" height="64" viewBox="0 0 64 64" fill="none" xmlns="http://www.w3.org/2000/svg">
<g clip-path="url(#clip0_8_208)">
<path d="M63.9813 0H0.01875C0.00839466 0 0 0.00839466 0 0.01875V63.9813C0 63.9916 0.00839466 64 0.01875 64H63.9813C63.9916 64 64 63.9916 64 63.9813V0.01875C64 0.00839466 63.9916 0 63.9813 0Z" fill="white"/>
<path d="M19.75 48.875V31.125L9.5 23.25V45.125C9.5 47.625 10.75 48.875 13.25 48.875" fill="#4285F4"/>
<path d="M19.25 31L32 40.625L44.75 31V18.75L32 28.375L19.25 18.75" fill="#EA4335"/>
<path d="M44.25 48.875V31.125L54.5 23.25V45.125C54.5 47.625 53.25 48.875 50.75 48.875" fill="#34A853"/>
<path d="M9.5 23.4999L19.75 31.3749V19.1249L16 16.2499C12.625 13.6249 9.5 16.2499 9.5 19.4999" fill="#C5221F"/>
<path d="M54.5 23.4999L44.25 31.3749V19.1249L48 16.2499C51.375 13.6249 54.5 16.2499 54.5 19.4999" fill="#FBBC04"/>
</g>
<rect x="0.5" y="0.5" width="63" height="63" rx="3.5" stroke="#E2E2E2"/>
<defs>
<clipPath id="clip0_8_208">
<rect width="64" height="64" rx="4" fill="white"/>
</clipPath>
</defs>
</svg>
