<svg width="64" height="64" viewBox="0 0 64 64" fill="none" xmlns="http://www.w3.org/2000/svg">
<g clip-path="url(#clip0_8_205)">
<path d="M59.26 0.00195312H4.724C2.12 0.00195312 0 2.06795 0 4.61195V59.38C0 61.93 2.12 64 4.724 64H59.264C61.874 64 64 61.93 64 59.38V4.61195C64 2.06795 61.874 0.00195312 59.26 0.00195312Z" fill="#0177B5"/>
<path d="M9.48993 23.9939H18.9999V54.534H9.48993V23.9939ZM14.2379 8.79395C17.2719 8.79395 19.7379 11.2599 19.7379 14.2939C19.7379 17.3279 17.2719 19.7999 14.2399 19.7999C12.7804 19.7968 11.3816 19.2157 10.3494 18.1839C9.31719 17.1521 8.73563 15.7534 8.73193 14.2939C8.73193 13.5712 8.87439 12.8555 9.15117 12.1878C9.42794 11.5201 9.83361 10.9135 10.345 10.4027C10.8563 9.89194 11.4633 9.48694 12.1313 9.21089C12.7993 8.93484 13.5152 8.79316 14.2379 8.79395ZM24.9379 23.9939H34.0419V28.1679H34.1679C35.4359 25.7679 38.5319 23.2359 43.1679 23.2359C52.7799 23.2359 54.5539 29.5619 54.5539 37.7839V54.5359H45.0679V39.6799C45.0679 36.1399 45.0039 31.5799 40.1359 31.5799C35.1959 31.5799 34.4359 35.4399 34.4359 39.4199V54.528H24.9519V23.9879L24.9379 23.9939Z" fill="white"/>
</g>
<defs>
<clipPath id="clip0_8_205">
<rect width="64" height="64" fill="white"/>
</clipPath>
</defs>
</svg>
